<svg width="549" height="164" viewBox="0 0 549 164" fill="none" xmlns="http://www.w3.org/2000/svg">
    <path fill-rule="evenodd" clip-rule="evenodd" d="M56.2 5.4C62.4 1.8 69.3 0 76.2 0H76.6C83.5 0 90.3 1.8 96.5 5.4L132.7 26.1C145.1 33.2 152.8 46.5 152.8 60.9V64.2C152.8 66.7 150.1 68.2 148 67L80.2 27.9C76.4 25.8 71.5 27.2 69.6 31.3C67.9 34.9 69.6 39.2 73 41.2L149.6 85.5C151.5 86.6 152.7 88.7 152.7 90.9V102.8C152.7 105.4 152.4 108 151.9 110.5C151.4 113.4 148.2 114.7 145.7 113.3L13.6 37C11.6 35.8 11.3 33.1 13 31.5C15.1 29.5 17.5 27.7 20.1 26.2L56.2 5.4ZM0.1 61.1C0.1 58 0.4 54.9 1.1 52C1.5 50.4 2.8 49.4 4.3 49.5C4.8 49.5 5.4 49.6 5.9 49.9L138.1 126.4C140.7 127.8 140.9 131.4 138.7 133.3C136.9 135 134.8 136.4 132.6 137.7L96.4 158.6C90.3 162.2 83.4 164 76.5 164H76.2C69.3 164 62.5 162.2 56.3 158.6L20.1 137.7C7.7 130.5 0 117.2 0 102.9V99.8C0 97.2 2.8 95.6 5 96.9L72.6 135.9C73.8 136.6 75.1 136.9 76.4 136.9C79.3 136.9 82.2 135.2 83.4 132.2C84.8 128.7 83.2 124.7 79.9 122.8L3.4 78.6C1.4 77.4 0.1 75.2 0.1 72.8V61.1Z" fill="url(#paint0_linear)"/>
    <path fill-rule="evenodd" clip-rule="evenodd" d="M221 96.5974V94.6944C221 93.8681 221.41 93.4549 222.228 93.4549H226.855C227.672 93.4549 228.083 93.8681 228.083 94.6944V96.0114C228.083 98.0575 228.528 99.5324 229.42 100.433C230.312 101.335 231.794 101.786 233.864 101.786H238.852C240.923 101.786 242.418 101.312 243.331 100.36C244.248 99.409 244.706 97.8616 244.706 95.7167V94.0377C244.706 92.4804 244.116 91.2491 242.933 90.3471C241.754 89.445 240.297 88.8606 238.564 88.5906C236.827 88.3256 234.925 87.9454 232.852 87.4598C230.778 86.9742 228.877 86.4128 227.143 85.7791C225.407 85.147 223.95 83.9519 222.771 82.1971C221.589 80.4407 221 78.2003 221 75.471V72.4027C221 68.8471 221.999 66.0569 223.999 64.0322C225.996 62.0124 228.757 61 232.274 61H239.937C243.501 61 246.283 62.0124 248.286 64.0322C250.283 66.0569 251.282 68.8471 251.282 72.4027V74.0109C251.282 74.8389 250.875 75.2538 250.056 75.2538H245.427C244.609 75.2538 244.202 74.8389 244.202 74.0109V73.0595C244.202 70.9656 243.754 69.466 242.862 68.5656C241.97 67.6652 240.488 67.2108 238.418 67.2108H233.864C231.794 67.2108 230.312 67.6882 229.42 68.6396C228.528 69.5894 228.083 71.2109 228.083 73.499V75.7657C228.083 77.96 229.649 79.4448 232.781 80.225C234.177 80.5641 235.706 80.8588 237.371 81.0991C239.032 81.3477 240.704 81.7115 242.393 82.1971C244.079 82.6844 245.621 83.3313 247.017 84.1346C248.414 84.9379 249.549 86.1577 250.416 87.7874C251.282 89.4236 251.718 91.4072 251.718 93.7446V96.5974C251.718 100.153 250.714 102.943 248.717 104.965C246.717 106.988 243.957 107.998 240.442 107.998H232.347C228.831 107.998 226.059 106.988 224.034 104.965C222.011 102.943 221 100.153 221 96.5974Z" fill="white"/>
    <path fill-rule="evenodd" clip-rule="evenodd" d="M277.845 107.998H273.289C272.421 107.998 271.99 107.585 271.99 106.756V67.9433C271.99 67.461 271.748 67.2124 271.267 67.2124H262.161C261.292 67.2124 260.859 66.8009 260.859 65.9713V62.2428C260.859 61.4165 261.292 61 262.161 61H288.974C289.844 61 290.275 61.4165 290.275 62.2428V65.9713C290.275 66.8009 289.844 67.2124 288.974 67.2124H279.866C279.338 67.2124 279.073 67.461 279.073 67.9433V106.756C279.073 107.585 278.663 107.998 277.845 107.998Z" fill="white"/>
    <path fill-rule="evenodd" clip-rule="evenodd" d="M367.247 107.998H344.119C343.298 107.998 342.891 107.585 342.891 106.756V62.2428C342.891 61.4165 343.298 61 344.119 61H367.247C368.019 61 368.406 61.4165 368.406 62.2428V65.9713C368.406 66.8009 368.019 67.2124 367.247 67.2124H350.768C350.189 67.2124 349.901 67.461 349.901 67.9433V80.2991C349.901 80.7847 350.189 81.03 350.768 81.03H364.717C365.585 81.03 366.019 81.4432 366.019 82.2695V86.0013C366.019 86.826 365.585 87.2408 364.717 87.2408H350.768C350.189 87.2408 349.901 87.4861 349.901 87.9733V100.983C349.901 101.518 350.189 101.786 350.768 101.786H367.247C368.019 101.786 368.406 102.199 368.406 103.03V106.756C368.406 107.585 368.019 107.998 367.247 107.998Z" fill="white"/>
    <path fill-rule="evenodd" clip-rule="evenodd" d="M456.217 61H464.315C465.134 61 465.541 61.4165 465.541 62.2445V106.756C465.541 107.585 465.134 108 464.315 108H459.832C459.012 108 458.603 107.585 458.603 106.756V69.8446H458.313L448.92 96.5973C448.63 97.3759 448.099 97.7661 447.328 97.7661H442.704C441.982 97.7661 441.475 97.3759 441.185 96.5973L431.573 69.7705H431.284V106.756C431.284 107.244 431.2 107.572 431.03 107.743C430.861 107.914 430.535 108 430.054 108H425.646C424.826 108 424.418 107.585 424.418 106.756V62.2445C424.418 61.4165 424.826 61 425.646 61H433.741C434.271 61 434.656 61.2683 434.897 61.8033L444.798 90.0162H445.16L455.134 61.8033C455.23 61.2683 455.593 61 456.217 61Z" fill="white"/>
    <path fill-rule="evenodd" clip-rule="evenodd" d="M504.041 107.998H480.913C480.092 107.998 479.685 107.585 479.685 106.756V62.2428C479.685 61.4165 480.092 61 480.913 61H504.041C504.813 61 505.2 61.4165 505.2 62.2428V65.9713C505.2 66.8009 504.813 67.2124 504.041 67.2124H487.562C486.984 67.2124 486.694 67.461 486.694 67.9433V80.2991C486.694 80.7847 486.984 81.03 487.562 81.03H501.511C502.378 81.03 502.813 81.4432 502.813 82.2695V86.0013C502.813 86.826 502.378 87.2408 501.511 87.2408H487.562C486.984 87.2408 486.694 87.4861 486.694 87.9733V100.983C486.694 101.518 486.984 101.786 487.562 101.786H504.041C504.813 101.786 505.2 102.199 505.2 103.03V106.756C505.2 107.585 504.813 107.998 504.041 107.998Z" fill="white"/>
    <path fill-rule="evenodd" clip-rule="evenodd" d="M520.924 107.998H515.575C515.189 107.998 514.912 107.878 514.744 107.635C514.574 107.389 514.586 107.075 514.779 106.683L526.706 83.6588L515.286 62.3185C515.093 61.9761 515.08 61.6716 515.248 61.4049C515.417 61.1366 515.694 61 516.081 61H521.212C522.173 61 522.85 61.4165 523.236 62.2428L531.548 79.2012H531.836L540.15 62.2428C540.583 61.4165 541.209 61 542.027 61H547.377C547.762 61 548.037 61.1482 548.208 61.4412C548.376 61.7325 548.389 62.0502 548.244 62.3893L536.679 83.6588L548.605 106.611C548.796 107.003 548.822 107.332 548.679 107.597C548.534 107.863 548.244 107.998 547.811 107.998H542.389C541.62 107.998 541.064 107.608 540.726 106.83L531.836 88.9972H531.548L522.655 106.83C522.32 107.608 521.742 107.998 520.924 107.998Z" fill="white"/>
    <path fill-rule="evenodd" clip-rule="evenodd" d="M330.64 106.535L322.619 89.4318V89.1421C327.195 87.6771 329.481 84.1461 329.481 78.5443V72.4027C329.481 68.8471 328.482 66.0569 326.485 64.0322C324.482 62.0124 321.725 61 318.207 61H301.295C300.473 61 300.067 61.4148 300.067 62.2445V67.2141H317.053C320.617 67.2141 322.401 69.0183 322.401 72.6216V78.7633C322.401 82.3189 320.617 84.0967 317.053 84.0967H300.067V106.756C300.067 107.585 300.473 107.998 301.295 107.998H305.848C306.666 107.998 307.076 107.585 307.076 106.756V90.6746C307.076 90.1874 307.366 89.9454 307.943 89.9454H315.244L322.979 106.756C323.315 107.585 324.062 107.998 325.216 107.998H329.698C330.856 107.998 331.167 107.511 330.64 106.535Z" fill="white"/>
    <path fill-rule="evenodd" clip-rule="evenodd" d="M401.676 62.2445C401.485 61.4165 400.902 61 399.941 61H392.711C391.796 61 391.22 61.4165 390.979 62.2445L378.402 106.756C378.211 107.587 378.448 108 379.127 108H384.328C385.006 108 385.435 107.587 385.631 106.756L396.184 68.0174H396.471L402.827 91.1339C402.866 91.2705 402.764 91.4104 402.621 91.4104H396.784C396.384 91.4104 396.036 91.6771 395.929 92.0672L394.845 96.0492C394.68 96.6549 395.131 97.2542 395.755 97.2542H404.114C404.209 97.2542 404.295 97.32 404.321 97.4121L407.024 106.756C407.12 107.244 407.255 107.572 407.424 107.743C407.589 107.918 407.893 108 408.323 108H413.459C414.18 108 414.445 107.587 414.254 106.756L401.676 62.2445Z" fill="white"/>
    <defs>
        <linearGradient id="paint0_linear" x1="-6" y1="86.5" x2="153" y2="86.5" gradientUnits="userSpaceOnUse">
            <stop stop-color="#22F6F8"/>
            <stop offset="1" stop-color="#6049BC"/>
        </linearGradient>
    </defs>
</svg>